# xmcd
#
# Track frame offsets: 
#        150
#        12872
#        25532
#        42002
#        56066
#        73270
#        86770
#        100746
#        112971
#        124709
#        136582
#        154293
#        169899
#        184783
#        202114
#        215580
#        238470
#        253297
#        268977
#        281421
#
# Disc length: 3965 seconds
#
# Revision: 0
# Processed by: cddbd v1.5.2PL0 Copyright (c) Steve Scherf et al.
# Submitted via: ExactAudioCopy v1.1
#
DISCID=2a0f7b14
DTITLE=Various Artist - 1000 Klassiekers Radio 2 Vol. 05 - CD 5
DYEAR=2013
DGENRE=Pop
TTITLE0=Elvis Presley - Are You Lonesome Tonight? (Laughing Version)
TTITLE1=Cliff Richard - Goodbye Sam, Hello Samantha
TTITLE2=Nina Simone - My Baby Just Cares For Me
TTITLE3=Admiral Freebee - Faithful To The Night
TTITLE4=The Pretenders - Don't Get Me Wrong
TTITLE5=Smokey Robinson and The Miracles - The Tears Of A Clown
TTITLE6=The Sweet - Poppa Joe
TTITLE7=The Spencer Davis Group - Keep On Running
TTITLE8=Marianne Faithfull - As Tears Go By
TTITLE9=The Platters - The Great Pretender
TTITLE10=Echo and The Bunnymen - Bring On The Dancing Horses
TTITLE11=The Shorts - Comment Ca Va
TTITLE12=Sixpence None The Richer - Kiss Me
TTITLE13=Gilbert Bécaud - Et Maintenant
TTITLE14=Bart Peeters - Ik Wil Je (Nooit Meer Kwijt)
TTITLE15=Golden Earring - Radar Love
TTITLE16=Isaac Hayes - Theme From 'Shaft'
TTITLE17=Boney M - Daddy Cool
TTITLE18=Bill Haley And His Comets - See You Later, Alligator
TTITLE19=Chic - Le Freak
EXTD=
EXTT0=
EXTT1=
EXTT2=
EXTT3=
EXTT4=
EXTT5=
EXTT6=
EXTT7=
EXTT8=
EXTT9=
EXTT10=
EXTT11=
EXTT12=
EXTT13=
EXTT14=
EXTT15=
EXTT16=
EXTT17=
EXTT18=
EXTT19=
PLAYORDER=
